<?xml version="1.0" encoding="UTF-8"?><svg xmlns="http://www.w3.org/2000/svg" xmlns:xlink="http://www.w3.org/1999/xlink" width="72px" height="72px" viewBox="0 0 72 72" version="1.1"><title>about-me</title><g id="providers-list" stroke="none" stroke-width="1" fill="none" fill-rule="evenodd"><g id="about-me"><rect id="Rectangle-2" fill="#9CA3AF" x="0" y="0" width="72" height="72" rx="4"/><path d="M35.022 45.846V33.021c0-2.117-.937-3.542-3.256-3.542-1.914 0-3.707 1.303-4.562 2.606v13.761h-4.277V33.021c0-2.117-.895-3.542-3.217-3.542-1.914 0-3.664 1.343-4.56 2.606v13.761h-4.276V26.181h4.275v2.647c.856-1.181 3.423-3.135 6.435-3.135 2.932 0 4.724 1.465 5.375 3.583 1.1-1.751 3.706-3.583 6.679-3.583 3.584 0 5.66 1.954 5.66 5.944v14.21h-4.276zm6.662-9.852c0-5.701 4.154-10.301 9.977-10.301 5.904 0 9.651 4.478 9.651 10.667v1.059H46.163c.327 2.932 2.525 5.415 6.232 5.415 1.954 0 4.194-.774 5.619-2.2l1.953 2.81c-1.995 1.874-4.887 2.892-7.98 2.892-5.946 0-10.303-4.113-10.303-10.342zm9.937-6.8c-3.625 0-5.336 2.81-5.498 5.171H57.2c-.124-2.32-1.712-5.17-5.58-5.17z" id="Fill-1" fill="#FFF"/></g></g><metadata><rdf:RDF xmlns:rdf="http://www.w3.org/1999/02/22-rdf-syntax-ns#" xmlns:rdfs="http://www.w3.org/2000/01/rdf-schema#" xmlns:dc="http://purl.org/dc/elements/1.1/"><rdf:Description about="https://iconscout.com/legal#licenses" dc:title="about,me" dc:description="about,me" dc:publisher="Iconscout" dc:date="2017-09-26" dc:format="image/svg+xml" dc:language="en"><dc:creator><rdf:Bag><rdf:li>Luc Chaffard</rdf:li></rdf:Bag></dc:creator></rdf:Description></rdf:RDF></metadata></svg>