<svg xmlns="http://www.w3.org/2000/svg" xmlns:xlink="http://www.w3.org/1999/xlink" width="36" height="36" viewBox="0 0 36 36"><defs><linearGradient id="a"><stop offset="0" stop-color="#9CA3AF"/><stop offset="1" stop-color="#9CA3AF"/></linearGradient><linearGradient id="b" x1="949.87" x2="974.39" y1="518.014" y2="544.657" gradientTransform="translate(-1090.764 421.597) scale(1.15339)" gradientUnits="userSpaceOnUse" xlink:href="#a"/></defs><g transform="translate(0 -1016.362)"><rect width="36" height="36" y="1016.362" fill="url(#b)" rx="7.608" ry="7.608"/><path fill="#fff" style="text-indent:0;text-align:start;line-height:normal;text-transform:none;block-progression:tb" d="M 25.34375 7.96875 C 23.812253 7.96875 22.450259 8.77775 21.65625 9.96875 L 20.5625 9.96875 L 18.03125 8.09375 C 17.93703 8.02275 17.836447 7.9939 17.71875 8 C 17.62042 8.01 17.516209 8.03375 17.4375 8.09375 L 14.9375 9.96875 L 10.25 9.96875 L 10.25 10.46875 L 10.25 13.46875 L 8.5625 14.75 C 8.3083276 14.848 8.1887338 15.1189 8.28125 15.375 C 8.27239 15.412 8.25022 15.4617 8.25 15.5 L 8.25 26.375 C 8.1492096 26.7414 8.4739811 27.05655 8.84375 26.96875 L 26.65625 26.96875 C 27.009258 27.05875 27.315269 26.76465 27.25 26.40625 L 27.25 16.375 C 28.721715 15.6544 29.750003 14.15415 29.75 12.40625 C 29.750004 9.9649501 27.780207 7.96875 25.34375 7.96875 z M 25.34375 8.96875 C 27.238147 8.96875 28.750003 10.50375 28.75 12.40625 C 28.750003 14.30875 27.238147 15.84375 25.34375 15.84375 C 23.449353 15.84375 21.906247 14.30875 21.90625 12.40625 C 21.906247 10.50375 23.449353 8.96875 25.34375 8.96875 z M 17.75 9.125 L 18.875 9.96875 L 16.59375 9.96875 L 17.75 9.125 z M 11.25 10.96875 L 15.09375 10.96875 C 15.1107 10.96895 15.13937 10.96825 15.15625 10.96875 L 20.34375 10.96875 L 20.40625 10.96875 L 21.1875 10.96875 C 21.077299 11.28415 21.010606 11.5969 20.96875 11.9375 L 14.25 11.9375 L 14.25 13 L 20.96875 13 C 21.01489 13.3377 21.100569 13.65955 21.21875 13.96875 L 13.25 13.96875 L 13.25 15.03125 L 21.78125 15.03125 C 22.262852 15.67815 22.931101 16.22285 23.6875 16.53125 L 17.75 20.21875 L 11.25 16.1875 L 11.25 13.71875 L 11.25 10.96875 z M 23.53125 11.90625 A 0.50004999 0.50004999 0 0 0 23.59375 12.90625 L 27.09375 12.90625 A 0.50004999 0.50004999 0 1 0 27.09375 11.90625 L 23.59375 11.90625 A 0.50004999 0.50004999 0 0 0 23.53125 11.90625 z M 10.25 14.71875 L 10.25 15.5625 L 9.65625 15.1875 L 10.25 14.71875 z M 15.25 16 L 15.25 17.0625 L 20.25 17.0625 L 20.25 16 L 15.25 16 z M 9.25 16.125 L 10.25 16.75 L 10.5 16.875 L 13.4375 18.71875 L 16.1875 20.4375 L 17.40625 21.1875 L 17.46875 21.25 L 17.5 21.25 L 17.53125 21.25 C 17.54895 21.26 17.54378 21.27425 17.5625 21.28125 C 17.60959 21.29825 17.668736 21.3105 17.71875 21.3125 C 17.75135 21.3125 17.78015 21.3131 17.8125 21.3125 C 17.82893 21.3125 17.85889 21.3125 17.875 21.3125 C 17.90728 21.3025 17.93868 21.29525 17.96875 21.28125 L 17.96875 21.25 C 17.97937 21.24 17.9898 21.257 18 21.25 L 18.09375 21.1875 L 25.03125 16.875 C 25.04607 16.865 25.04869 16.85375 25.0625 16.84375 L 25.09375 16.8125 C 25.18023 16.8225 25.256032 16.84375 25.34375 16.84375 C 25.660458 16.84375 25.951961 16.8136 26.25 16.75 L 26.25 25.5625 L 21.03125 22.0625 C 20.94791 22.0055 20.851116 21.96875 20.75 21.96875 C 20.250687 21.96875 20.080741 22.63505 20.5 22.90625 L 25.09375 25.96875 L 10.40625 25.96875 L 15.03125 22.90625 C 15.456803 22.63135 15.256656 21.9839 14.75 22 C 14.65403 22 14.547464 22.0075 14.46875 22.0625 L 9.25 25.5625 L 9.25 16.125 z " color="#000" font-family="sans-serif" font-weight="400" overflow="visible" transform="translate(0 1016.362)"/></g></svg>