<svg xmlns="http://www.w3.org/2000/svg" viewBox="0 0 64 64"><g data-name="Share"><path fill="#222" d="M14.68 24.5a2 2 0 0 1 0-4 5 5 0 0 0 4.5-2.84l.06-.12a4.93 4.93 0 0 0 .44-2 5 5 0 0 0-10 0 5.06 5.06 0 0 0 .6 2.38 2 2 0 1 1-3.52 1.9A9 9 0 1 1 23.68 15.5a8.77 8.77 0 0 1-.74 3.56c0 .1-.09.21-.14.31A9 9 0 0 1 14.68 24.5zM14.7 57.5A9 9 0 1 1 22.47 44a5.52 5.52 0 0 1 .35.68 2 2 0 0 1-3.66 1.61c-.05-.11-.11-.21-.16-.31a5 5 0 0 0-6.81-1.82 5 5 0 1 0 5 8.67 5 5 0 0 0 1.58-1.44A2 2 0 1 1 22 53.7a9 9 0 0 1-7.33 3.8zM49.31 41a9 9 0 0 1-4.49-1.21 8.73 8.73 0 0 1-3.59-3.87 2.64 2.64 0 0 1-.18-.38 9 9 0 0 1 0-7.11 2 2 0 0 1 2.63-1 2 2 0 0 1 1 2.63 5 5 0 0 0 0 4l0 .1a4.91 4.91 0 0 0 2 2.23 5 5 0 0 0 6.84-1.82 5 5 0 0 0-1.83-6.83 5 5 0 0 0-2.5-.67 2 2 0 1 1 0-4A9 9 0 0 1 58 29.67 9 9 0 0 1 49.31 41z"/><path fill="#222" d="M42.91 31.24a2.1 2.1 0 0 1-.7-.12 2 2 0 0 1-1-.75L25.71 23a2 2 0 1 1 1.72-3.61l16.43 7.83a2 2 0 0 1 1 2.51 1.89 1.89 0 0 1-.11.25A2 2 0 0 1 42.91 31.24zM14.68 37.6a2 2 0 0 1-2-2V22.5a2 2 0 0 1 4 0V35.6A2 2 0 0 1 14.68 37.6zM21 47.48a2 2 0 0 1-.86-3.8l16.41-7.81a2 2 0 1 1 1.72 3.61L21.86 47.29A2 2 0 0 1 21 47.48z"/></g></svg>