<?xml version="1.0" encoding="UTF-8"?><!DOCTYPE svg PUBLIC "-//W3C//DTD SVG 1.1//EN" "http://www.w3.org/Graphics/SVG/1.1/DTD/svg11.dtd"><svg xmlns="http://www.w3.org/2000/svg" xmlns:xlink="http://www.w3.org/1999/xlink" xml:space="preserve" width="43.3492mm" height="43.3492mm" version="1.1" viewBox="0 0 4335 4335" shape-rendering="geometricPrecision" text-rendering="geometricPrecision" image-rendering="optimizeQuality" fill-rule="evenodd" clip-rule="evenodd"><defs><style type="text/css"><![CDATA[
    .fil0 {fill:#6D97B5}
    .fil1 {fill:#E6E6E6}
   ]]></style></defs><g id="Layer_x0020_1"><path class="fil0" d="M2155 4191c1116 0 2021-905 2021-2021S3271 149 2155 149 134 1054 134 2170s905 2021 2021 2021z" fill="#6D97B5"/><path class="fil1" d="M2156 1207h14c308 9 555 304 555 667s-247 659-555 667h-15c-351 0-569-345-569-668 0-363 247-659 555-667h15zM914 3737s417-823 719-963c247-114 800-114 1046 0 302 139 719 963 719 963-411 335-929 423-1173 446v8s-25 0-69-3c-44 3-69 3-69 3v-8c-244-23-762-111-1173-446z" fill="#E6E6E6"/></g><metadata><rdf:RDF xmlns:rdf="http://www.w3.org/1999/02/22-rdf-syntax-ns#" xmlns:rdfs="http://www.w3.org/2000/01/rdf-schema#" xmlns:dc="http://purl.org/dc/elements/1.1/"><rdf:Description about="https://iconscout.com/legal#licenses" dc:title="telegram,ui,avatar,man" dc:description="telegram,ui,avatar,man" dc:publisher="Iconscout" dc:date="2018-05-10" dc:format="image/svg+xml" dc:language="en"><dc:creator><rdf:Bag><rdf:li>Egor Polyakov</rdf:li></rdf:Bag></dc:creator></rdf:Description></rdf:RDF></metadata></svg>