<?xml version="1.0" encoding="UTF-8" standalone="no"?>
<svg xmlns="http://www.w3.org/2000/svg" id="Copyright" viewBox="0 0 24 24"><title>Copyright</title><path d="M12,0A12,12,0,1,0,24,12,12,12,0,0,0,12,0Zm0,22A10,10,0,1,1,22,12,10,10,0,0,1,12,22Z" style="fill:#303c42"/><path d="M12,9a3.07,3.07,0,0,1,2.23,1,.51.51,0,0,0,.67,0l.8-.57a.49.49,0,0,0,.1-.72A5,5,0,1,0,12,17a5.07,5.07,0,0,0,3.81-1.72.49.49,0,0,0-.1-.72l-.8-.57a.51.51,0,0,0-.67,0A3.07,3.07,0,0,1,12,15a3,3,0,1,1,0-6Z" style="fill:#303c42"/>
	<metadata>
		<rdf:RDF xmlns:rdf="http://www.w3.org/1999/02/22-rdf-syntax-ns#" xmlns:rdfs="http://www.w3.org/2000/01/rdf-schema#" xmlns:dc="http://purl.org/dc/elements/1.1/">
			<rdf:Description about="https://iconscout.com/legal#licenses" dc:title="copyright; copy; right; restriction (1)" dc:description="copyright; copy; right; restriction (1)" dc:publisher="Iconscout" dc:date="2017-02-21" dc:format="image/svg+xml" dc:language="en">
				<dc:creator>
					<rdf:Bag>
						<rdf:li>Alpár - Etele Méder</rdf:li>
					</rdf:Bag>
				</dc:creator>
			</rdf:Description>
		</rdf:RDF>
    </metadata></svg>
