<svg xmlns="http://www.w3.org/2000/svg" width="24" height="24" viewBox="0 0 24 24"><g transform="translate(0 -1028.362)"><circle cx="12" cy="1040.362" r="12" fill="#ef4c45" fill-rule="evenodd"/><path fill="#df2209" style="line-height:normal;text-indent:0;text-align:start;text-decoration-line:none;text-transform:none;block-progression:tb" d="M 14.521484 23.716797 A 12 12 0 0 0 15.210938 23.5625 A 12 12 0 0 0 16.347656 23.183594 A 12 12 0 0 0 17.443359 22.695312 A 12 12 0 0 0 18.484375 22.097656 A 12 12 0 0 0 19.458984 21.400391 A 12 12 0 0 0 20.361328 20.607422 A 12 12 0 0 0 21.177734 19.730469 A 12 12 0 0 0 21.904297 18.775391 A 12 12 0 0 0 22.53125 17.753906 A 12 12 0 0 0 23.052734 16.673828 A 12 12 0 0 0 23.464844 15.546875 A 12 12 0 0 0 23.724609 14.529297 L 16.597656 7.4023438 C 15.422128 6.2268438 13.797877 5.5 12 5.5 C 8.4042289 5.5 5.4999953 8.4043004 5.5 12 C 5.4999977 13.7979 6.2268194 15.422156 7.4023438 16.597656 L 14.521484 23.716797 z " color="#000" font-family="sans-serif" font-weight="400" transform="translate(0 1028.362)"/><path fill="#fff" d="m 8.5,2 c 3.595771,0 6.500005,2.9043 6.5,6.5 5e-6,3.5958 -2.904229,6.5 -6.5,6.5 C 4.9042285,15 1.9999953,12.0958 2,8.5 1.9999953,4.9043 4.9042285,2 8.5,2 Z M 8.3007812,3.5058594 C 7.9228067,3.5356396 7.5498136,3.6514312 7.2109375,3.8554688 6.3072391,4.3996688 5.8402445,5.4581875 6.0488281,6.4921875 6.1020018,6.747398 6.3814504,6.9318524 6.6370201,6.880433 6.8925898,6.8290136 7.0789596,6.5508388 7.0292969,6.2949219 6.9035916,5.6717219 7.1819345,5.0408906 7.7265625,4.7128906 8.271197,4.3848906 8.9592022,4.4333375 9.4511719,4.8359375 9.9431512,5.2386375 10.125917,5.9031531 9.9121094,6.5019531 9.6983379,7.1006531 9.1357121,7.4981469 8.5,7.4980469 8.197576,7.4946648 7.9381272,7.8189758 8.0078125,8.1132812 l 0,2.9804688 c -0.00374,0.264156 0.2358173,0.507121 0.5,0.507121 0.2641827,0 0.5037358,-0.242965 0.5,-0.507121 l 0,-2.6523438 C 9.8482661,8.2660492 10.557026,7.668258 10.853516,6.8378906 11.208244,5.8444906 10.898353,4.7326531 10.082031,4.0644531 9.5718291,3.6469531 8.9307388,3.4562256 8.3007812,3.5058594 Z m 0.2070313,9.0507816 c -0.2617994,0 -0.5,0.238201 -0.5,0.5 0,0.261799 0.2382006,0.5 0.5,0.5 0.2617994,0 0.5,-0.238201 0.5,-0.5 0,-0.261799 -0.2382006,-0.5 -0.5,-0.5 z" color="#000" font-family="sans-serif" font-weight="400" overflow="visible" transform="translate(3.5 1031.862)" style="line-height:normal;text-indent:0;text-align:start;text-decoration-line:none;text-transform:none;block-progression:tb"/></g></svg>