
<svg xmlns="http://www.w3.org/2000/svg" viewBox="0 0 24 24"><title>Messages 3</title><g id="Messages_3" data-name="Messages 3"><path d="M9,2.5C4.31,2.5.5,5.63.5,9.5A6.63,6.63,0,0,0,3.75,15L2.5,17.5l2.91-1.66A10,10,0,0,0,9,16.5c4.69,0,8.5-3.13,8.5-7S13.69,2.5,9,2.5Z" style="fill:none;stroke:#303c42;stroke-linecap:round;stroke-linejoin:round"/><path d="M16.71,6.64c3.87.65,6.79,3.48,6.79,6.86A6.63,6.63,0,0,1,20.25,19l1.25,2.5-2.91-1.66A10,10,0,0,1,15,20.5a8.73,8.73,0,0,1-7.77-4.16" style="fill:none;stroke:#303c42;stroke-linecap:round;stroke-linejoin:round"/></g>
</svg>
