
<svg xmlns="http://www.w3.org/2000/svg" viewBox="0 0 24 24"><title>Messages 3</title><g id="Messages_3" data-name="Messages 3"><path d="M18,9.5C18,5.36,14,2,9,2S0,5.36,0,9.5a7,7,0,0,0,3.11,5.67L2.05,17.28a.5.5,0,0,0,.7.66l2.71-1.55A10.46,10.46,0,0,0,9,17C14,17,18,13.64,18,9.5Z"/><path d="M24,13.5A7.41,7.41,0,0,0,19.42,7a.5.5,0,0,0-.69.59A7.3,7.3,0,0,1,19,9.5C19,14.15,14.55,18,9.07,18a.5.5,0,0,0-.31.89A10,10,0,0,0,15,21a10.46,10.46,0,0,0,3.55-.61l2.71,1.55a.5.5,0,0,0,.7-.66l-1.06-2.11A7,7,0,0,0,24,13.5Z" /></g>
</svg>
