
<svg  viewBox="0 0 24 24"><title>Post It</title><g id="Post_It" data-name="Post It"><path d="M23.91,16.12,19.84,2.56a2.21,2.21,0,0,0-2.72-1.46L12,2.64A2,2,0,0,0,8,3H2A2,2,0,0,0,0,5V20a2,2,0,0,0,2,2H6.42a2.18,2.18,0,0,0,2.46.91l13.56-4.07A2.2,2.2,0,0,0,24,16.75,2.17,2.17,0,0,0,23.91,16.12ZM10,5.32,11,5V6.5a.5.5,0,0,1-1,0ZM4.13,7.08,9,5.62V6.5a1.5,1.5,0,0,0,3,0V4.72L17.75,3a.18.18,0,0,1,.18.13L22,16.75a.18.18,0,0,1-.13.18L8.25,21a.18.18,0,0,1-.18-.13L4,7.25A.18.18,0,0,1,4.13,7.08ZM10,2a1,1,0,0,1,1,.93L10.76,3H9A1,1,0,0,1,10,2Z" /></g>
</svg>
