<svg xmlns="http://www.w3.org/2000/svg" enable-background="new 0 0 100 100" viewBox="0 0 100 100"><path d="M50,42c-4.41,0-8,3.59-8,8s3.59,8,8,8s8-3.59,8-8S54.41,42,50,42z M50,54c-2.21,0-4-1.79-4-4c0-2.21,1.79-4,4-4
	c2.21,0,4,1.79,4,4C54,52.21,52.21,54,50,54z M93,52c1.1,0,2-0.9,2-2s-0.9-2-2-2h-4.05c-0.11-2.07-0.38-4.1-0.79-6.07l3.92-1.04
	c1.07-0.28,1.7-1.38,1.42-2.45c-0.28-1.07-1.38-1.7-2.45-1.42l-3.92,1.04c-0.6-1.85-1.33-3.64-2.18-5.36l3.54-1.99
	c0.96-0.54,1.31-1.76,0.77-2.72c-0.54-0.96-1.76-1.31-2.72-0.77l-3.55,1.99c-1.2-1.89-2.54-3.68-4.04-5.33l2.88-2.88
	c0.78-0.78,0.78-2.05,0-2.83c-0.78-0.78-2.05-0.78-2.83,0l-2.88,2.88c-1.65-1.49-3.44-2.84-5.33-4.04l1.99-3.55
	c0.54-0.96,0.2-2.18-0.77-2.72c-0.96-0.54-2.18-0.2-2.72,0.77l-1.99,3.54c-1.72-0.86-3.51-1.59-5.36-2.18l1.04-3.92
	c0.28-1.07-0.35-2.16-1.42-2.45c-1.07-0.28-2.16,0.35-2.45,1.42l-1.04,3.92c-1.97-0.42-4-0.69-6.07-0.79V7c0-1.1-0.9-2-2-2
	s-2,0.9-2,2v4.05c-2.07,0.11-4.1,0.38-6.07,0.79l-1.04-3.92c-0.28-1.07-1.38-1.7-2.45-1.42c-1.07,0.28-1.7,1.38-1.42,2.45l1.04,3.92
	c-1.85,0.6-3.64,1.33-5.36,2.18l-1.99-3.54c-0.54-0.96-1.76-1.31-2.72-0.77c-0.96,0.54-1.31,1.76-0.77,2.72l1.99,3.55
	c-1.89,1.2-3.68,2.54-5.33,4.04l-2.88-2.88c-0.78-0.78-2.05-0.78-2.83,0c-0.78,0.78-0.78,2.05,0,2.83l2.88,2.88
	c-1.49,1.65-2.84,3.44-4.04,5.33l-3.55-1.99c-0.96-0.54-2.18-0.2-2.72,0.77c-0.54,0.96-0.2,2.18,0.77,2.72l3.54,1.99
	c-0.85,1.72-1.59,3.51-2.18,5.36l-3.92-1.04c-1.06-0.28-2.16,0.35-2.45,1.42c-0.28,1.07,0.35,2.16,1.42,2.45l3.92,1.04
	c-0.42,1.97-0.69,4-0.79,6.07H7c-1.1,0-2,0.9-2,2s0.9,2,2,2h4.05c0.11,2.07,0.38,4.1,0.79,6.07l-3.92,1.04
	c-1.07,0.28-1.7,1.38-1.42,2.45c0.24,0.9,1.05,1.49,1.93,1.49c0.17,0,0.34-0.02,0.52-0.07l3.92-1.04c0.6,1.85,1.33,3.64,2.18,5.36
	l-3.54,1.99c-0.96,0.54-1.31,1.76-0.77,2.72c0.37,0.65,1.05,1.02,1.75,1.02c0.33,0,0.67-0.08,0.98-0.26l3.55-1.99
	c1.2,1.89,2.54,3.68,4.04,5.33l-2.88,2.88c-0.78,0.78-0.78,2.05,0,2.83c0.39,0.39,0.9,0.59,1.41,0.59s1.02-0.2,1.41-0.59l2.88-2.88
	c1.65,1.49,3.44,2.84,5.33,4.04l-1.99,3.55c-0.54,0.96-0.2,2.18,0.77,2.72c0.31,0.17,0.65,0.26,0.98,0.26c0.7,0,1.38-0.37,1.75-1.02
	l1.99-3.54c1.72,0.85,3.51,1.59,5.36,2.18l-1.04,3.92c-0.28,1.07,0.35,2.16,1.42,2.45c0.17,0.05,0.34,0.07,0.52,0.07
	c0.88,0,1.69-0.59,1.93-1.49l1.04-3.92c1.97,0.42,4,0.69,6.07,0.79V93c0,1.1,0.9,2,2,2s2-0.9,2-2v-4.05
	c2.07-0.11,4.1-0.38,6.07-0.79l1.04,3.92c0.24,0.9,1.05,1.49,1.93,1.49c0.17,0,0.34-0.02,0.51-0.07c1.07-0.28,1.7-1.38,1.42-2.45
	l-1.04-3.92c1.85-0.6,3.64-1.33,5.36-2.18l1.99,3.54c0.37,0.65,1.05,1.02,1.75,1.02c0.33,0,0.67-0.08,0.98-0.26
	c0.96-0.54,1.31-1.76,0.77-2.72l-1.99-3.55c1.89-1.2,3.68-2.54,5.33-4.04l2.88,2.88c0.39,0.39,0.9,0.59,1.41,0.59
	s1.02-0.2,1.41-0.59c0.78-0.78,0.78-2.05,0-2.83l-2.88-2.88c1.49-1.65,2.84-3.44,4.04-5.33l3.55,1.99c0.31,0.17,0.64,0.26,0.98,0.26
	c0.7,0,1.38-0.37,1.75-1.02c0.54-0.96,0.2-2.18-0.77-2.72l-3.54-1.99c0.86-1.72,1.59-3.51,2.18-5.36l3.92,1.04
	c0.17,0.05,0.34,0.07,0.51,0.07c0.88,0,1.69-0.59,1.93-1.49c0.28-1.07-0.35-2.16-1.42-2.45l-3.92-1.04c0.42-1.97,0.69-4,0.79-6.07
	H93z M50,85c-12.35,0-23.22-6.43-29.45-16.12l16.73-9.2C40.21,63.51,44.82,66,50,66s9.79-2.49,12.71-6.33l16.73,9.2
	C73.22,78.57,62.35,85,50,85z M15,50c0-18.63,14.63-33.9,33-34.94v19.08C40.12,35.13,34,41.86,34,50c0,2.21,0.45,4.31,1.26,6.22
	L18.58,65.4C16.29,60.75,15,55.52,15,50z M50,62c-6.62,0-12-5.38-12-12c0-6.62,5.38-12,12-12c6.62,0,12,5.38,12,12
	C62,56.62,56.62,62,50,62z M64.74,56.22C65.55,54.31,66,52.21,66,50c0-8.14-6.12-14.87-14-15.86V15.06C70.37,16.1,85,31.37,85,50
	c0,5.52-1.29,10.75-3.58,15.4L64.74,56.22z"/></svg>